<svg xmlns="http://www.w3.org/2000/svg" width="660" height="428">
  <defs>
    <style>
      @import url('https://fonts.googleapis.com/css2?family=JetBrains+Mono:wght@400;700&amp;display=swap');
      .term { font-family: 'JetBrains Mono', 'Fira Code', 'Cascadia Code', monospace; font-size: 13px; }
      .bold { font-weight: 700; }
    </style>
  </defs>
  <!-- Window frame -->
  <rect width="660" height="428" rx="10" fill="#282828" />
  <!-- Title bar -->
  <rect width="660" height="38" rx="10" fill="#1d2021" />
  <rect x="0" y="28" width="660" height="10" fill="#1d2021" />
  <!-- Traffic lights -->
  <circle cx="20" cy="19" r="6" fill="#ff5f57"/>
  <circle cx="40" cy="19" r="6" fill="#febc2e"/>
  <circle cx="60" cy="19" r="6" fill="#28c840"/>
  <!-- Title text -->
  <text x="330" y="23" text-anchor="middle" fill="#928374" class="term" font-size="12">pilot — Session Dashboard (prefix+D)</text>
  <!-- Content -->
  <g transform="translate(16, 50)">
    <text x="0.0" y="13" fill="#fabd2f" class="term bold">  Session Dashboard                                            </text>
    <text x="0.0" y="55" fill="#83a598" class="term bold">  ▸ AI Agents &amp; Tooling</text>
    <text x="179.4" y="55" fill="#ebdbb2" class="term">                           </text>
    <text x="390.0" y="55" fill="#928374" class="term">8 windows</text>
    <text x="0.0" y="76" fill="#ebdbb2" class="term">    </text>
    <text x="31.2" y="76" fill="#b8bb26" class="term">● </text>
    <text x="46.8" y="76" fill="#ebdbb2" class="term">Copilot Plugin      </text>
    <text x="202.8" y="76" fill="#b8bb26" class="term">● </text>
    <text x="218.4" y="76" fill="#ebdbb2" class="term">Europort MCP</text>
    <text x="0.0" y="97" fill="#ebdbb2" class="term">    </text>
    <text x="31.2" y="97" fill="#b8bb26" class="term">● </text>
    <text x="46.8" y="97" fill="#ebdbb2" class="term">Copilot UI          </text>
    <text x="202.8" y="97" fill="#b8bb26" class="term">● </text>
    <text x="218.4" y="97" fill="#ebdbb2" class="term">SIBA Voice</text>
    <text x="0.0" y="118" fill="#ebdbb2" class="term">    </text>
    <text x="31.2" y="118" fill="#b8bb26" class="term">● </text>
    <text x="46.8" y="118" fill="#ebdbb2" class="term">SIBA Leaderboard    </text>
    <text x="202.8" y="118" fill="#b8bb26" class="term">● </text>
    <text x="218.4" y="118" fill="#ebdbb2" class="term">SIVibe</text>
    <text x="0.0" y="139" fill="#ebdbb2" class="term">    </text>
    <text x="31.2" y="139" fill="#b8bb26" class="term">● </text>
    <text x="46.8" y="139" fill="#ebdbb2" class="term">Tmux Copilot-CLI    </text>
    <text x="202.8" y="139" fill="#928374" class="term">  </text>
    <text x="218.4" y="139" fill="#ebdbb2" class="term">🏷 zsh</text>
    <text x="0.0" y="181" fill="#83a598" class="term bold">  ▸ Internal Transfers</text>
    <text x="171.6" y="181" fill="#ebdbb2" class="term">                              </text>
    <text x="405.6" y="181" fill="#928374" class="term">6 windows</text>
    <text x="0.0" y="202" fill="#ebdbb2" class="term">    </text>
    <text x="31.2" y="202" fill="#b8bb26" class="term">● </text>
    <text x="46.8" y="202" fill="#ebdbb2" class="term">Bug #265793         </text>
    <text x="202.8" y="202" fill="#b8bb26" class="term">● </text>
    <text x="218.4" y="202" fill="#ebdbb2" class="term">Bug #265794</text>
    <text x="0.0" y="223" fill="#ebdbb2" class="term">    </text>
    <text x="31.2" y="223" fill="#b8bb26" class="term">● </text>
    <text x="46.8" y="223" fill="#ebdbb2" class="term">Bug #265795         </text>
    <text x="202.8" y="223" fill="#b8bb26" class="term">● </text>
    <text x="218.4" y="223" fill="#ebdbb2" class="term">Bug #265796</text>
    <text x="0.0" y="244" fill="#ebdbb2" class="term">    </text>
    <text x="31.2" y="244" fill="#b8bb26" class="term">● </text>
    <text x="46.8" y="244" fill="#ebdbb2" class="term">General             </text>
    <text x="202.8" y="244" fill="#928374" class="term">  </text>
    <text x="218.4" y="244" fill="#ebdbb2" class="term">🏷 zsh</text>
    <text x="0.0" y="286" fill="#83a598" class="term bold">  ▸ Add Fixed Term</text>
    <text x="140.4" y="286" fill="#ebdbb2" class="term">                                  </text>
    <text x="405.6" y="286" fill="#928374" class="term">7 windows</text>
    <text x="0.0" y="328" fill="#928374" class="term">  ↑/↓ navigate  │  Enter switch  │  d kill  │  q quit</text>
  </g>
</svg>