<svg xmlns="http://www.w3.org/2000/svg" width="660" height="428">
  <defs>
    <style>
      @import url('https://fonts.googleapis.com/css2?family=JetBrains+Mono:wght@400;700&amp;display=swap');
      .term { font-family: 'JetBrains Mono', 'Fira Code', 'Cascadia Code', monospace; font-size: 13px; }
      .bold { font-weight: 700; }
    </style>
  </defs>
  <!-- Window frame -->
  <rect width="660" height="428" rx="10" fill="#282828" />
  <!-- Title bar -->
  <rect width="660" height="38" rx="10" fill="#1d2021" />
  <rect x="0" y="28" width="660" height="10" fill="#1d2021" />
  <!-- Traffic lights -->
  <circle cx="20" cy="19" r="6" fill="#ff5f57"/>
  <circle cx="40" cy="19" r="6" fill="#febc2e"/>
  <circle cx="60" cy="19" r="6" fill="#28c840"/>
  <!-- Title text -->
  <text x="330" y="23" text-anchor="middle" fill="#928374" class="term" font-size="12">pilot — Feature Selector (prefix+F)</text>
  <!-- Content -->
  <g transform="translate(16, 50)">
    <text x="0.0" y="13" fill="#fabd2f" class="term bold">  Select a Feature                                              </text>
    <text x="0.0" y="55" fill="#928374" class="term">  Filter: </text>
    <text x="0.0" y="97" fill="#b8bb26" class="term">  ● </text>
    <text x="31.2" y="97" fill="#83a598" class="term">🏗  </text>
    <text x="54.6" y="97" fill="#ebdbb2" class="term bold">Add Fixed Term Deposits</text>
    <text x="234.0" y="97" fill="#ebdbb2" class="term">              </text>
    <text x="343.2" y="97" fill="#b8bb26" class="term">Active</text>
    <text x="0.0" y="118" fill="#b8bb26" class="term">  ● </text>
    <text x="31.2" y="118" fill="#83a598" class="term">🏗  </text>
    <text x="54.6" y="118" fill="#ebdbb2" class="term bold">Internal Transfers</text>
    <text x="195.0" y="118" fill="#ebdbb2" class="term">                   </text>
    <text x="343.2" y="118" fill="#b8bb26" class="term">Active</text>
    <text x="0.0" y="139" fill="#8ec07c" class="term">  ◉ </text>
    <text x="31.2" y="139" fill="#83a598" class="term">🏗  </text>
    <text x="54.6" y="139" fill="#ebdbb2" class="term">APO Click &amp; Collect                    </text>
    <text x="358.8" y="139" fill="#8ec07c" class="term">Resolved</text>
    <text x="0.0" y="160" fill="#b8bb26" class="term">  ● </text>
    <text x="31.2" y="160" fill="#83a598" class="term">🏗  </text>
    <text x="54.6" y="160" fill="#ebdbb2" class="term">AI Agents &amp; Tooling                    </text>
    <text x="358.8" y="160" fill="#b8bb26" class="term">Active</text>
    <text x="0.0" y="181" fill="#83a598" class="term">  ○ </text>
    <text x="31.2" y="181" fill="#83a598" class="term">🏗  </text>
    <text x="54.6" y="181" fill="#ebdbb2" class="term">APU Calculator                         </text>
    <text x="358.8" y="181" fill="#83a598" class="term">New</text>
    <text x="0.0" y="202" fill="#b8bb26" class="term">  ● </text>
    <text x="31.2" y="202" fill="#83a598" class="term">🏗  </text>
    <text x="54.6" y="202" fill="#ebdbb2" class="term">Tech Debt Reduction Q2                 </text>
    <text x="358.8" y="202" fill="#b8bb26" class="term">Active</text>
    <text x="0.0" y="223" fill="#928374" class="term">  ✔ </text>
    <text x="31.2" y="223" fill="#83a598" class="term">🏗  </text>
    <text x="54.6" y="223" fill="#928374" class="term">Mortgage Rate Calculator                Closed</text>
    <text x="0.0" y="244" fill="#928374" class="term">  ✔ </text>
    <text x="31.2" y="244" fill="#83a598" class="term">🏗  </text>
    <text x="54.6" y="244" fill="#928374" class="term">iDEAL Payment Integration              Closed</text>
    <text x="0.0" y="307" fill="#928374" class="term">  ↑/↓ navigate  │  Enter open  │  Ctrl+N new  │  q quit</text>
    <text x="0.0" y="328" fill="#928374" class="term">  ● Active  ○ New  ◉ Resolved  ✔ Closed  ⊕ Not started</text>
  </g>
</svg>