<svg xmlns="http://www.w3.org/2000/svg" width="620" height="428">
  <defs>
    <style>
      @import url('https://fonts.googleapis.com/css2?family=JetBrains+Mono:wght@400;700&amp;display=swap');
      .term { font-family: 'JetBrains Mono', 'Fira Code', 'Cascadia Code', monospace; font-size: 13px; }
      .bold { font-weight: 700; }
    </style>
  </defs>
  <!-- Window frame -->
  <rect width="620" height="428" rx="10" fill="#282828" />
  <!-- Title bar -->
  <rect width="620" height="38" rx="10" fill="#1d2021" />
  <rect x="0" y="28" width="620" height="10" fill="#1d2021" />
  <!-- Traffic lights -->
  <circle cx="20" cy="19" r="6" fill="#ff5f57"/>
  <circle cx="40" cy="19" r="6" fill="#febc2e"/>
  <circle cx="60" cy="19" r="6" fill="#28c840"/>
  <!-- Title text -->
  <text x="310" y="23" text-anchor="middle" fill="#928374" class="term" font-size="12">pilot — Notification Center (prefix+N)</text>
  <!-- Content -->
  <g transform="translate(16, 50)">
    <text x="0.0" y="13" fill="#fabd2f" class="term bold">  🔔 Notifications</text>
    <text x="132.6" y="13" fill="#ebdbb2" class="term">                                </text>
    <text x="382.2" y="13" fill="#83a598" class="term">3 unread</text>
    <text x="0.0" y="55" fill="#ebdbb2" class="term">  </text>
    <text x="15.6" y="55" fill="#fe8019" class="term">⚠ </text>
    <text x="31.2" y="55" fill="#ebdbb2" class="term bold">Pipeline failed</text>
    <text x="148.2" y="55" fill="#ebdbb2" class="term">                        </text>
    <text x="335.4" y="55" fill="#928374" class="term">2 min ago</text>
    <text x="0.0" y="76" fill="#ebdbb2" class="term">    </text>
    <text x="31.2" y="76" fill="#928374" class="term">Build #48291 failed at SonarQube stage</text>
    <text x="0.0" y="97" fill="#ebdbb2" class="term">    </text>
    <text x="31.2" y="97" fill="#928374" class="term">source: pipeline</text>
    <text x="0.0" y="139" fill="#ebdbb2" class="term">  </text>
    <text x="15.6" y="139" fill="#b8bb26" class="term">✓ </text>
    <text x="31.2" y="139" fill="#ebdbb2" class="term bold">PR #35047 merged</text>
    <text x="156.0" y="139" fill="#ebdbb2" class="term">                       </text>
    <text x="335.4" y="139" fill="#928374" class="term">15 min ago</text>
    <text x="0.0" y="160" fill="#ebdbb2" class="term">    </text>
    <text x="31.2" y="160" fill="#928374" class="term">Align Wiki &amp; Backlog changes merged to main</text>
    <text x="0.0" y="181" fill="#ebdbb2" class="term">    </text>
    <text x="31.2" y="181" fill="#928374" class="term">source: pr-merge</text>
    <text x="0.0" y="223" fill="#ebdbb2" class="term">  </text>
    <text x="15.6" y="223" fill="#83a598" class="term">ℹ </text>
    <text x="31.2" y="223" fill="#ebdbb2" class="term bold">New PR comments</text>
    <text x="148.2" y="223" fill="#ebdbb2" class="term">                        </text>
    <text x="335.4" y="223" fill="#928374" class="term">1 hour ago</text>
    <text x="0.0" y="244" fill="#ebdbb2" class="term">    </text>
    <text x="31.2" y="244" fill="#928374" class="term">3 new review comments on PR #35102</text>
    <text x="0.0" y="265" fill="#ebdbb2" class="term">    </text>
    <text x="31.2" y="265" fill="#928374" class="term">source: pr-comments</text>
    <text x="0.0" y="328" fill="#928374" class="term">  ↑/↓ navigate  │  Enter view  │  c clear all  │  q quit</text>
  </g>
</svg>